<svg width="26" height="26" viewBox="0 0 26 26" fill="none" xmlns="http://www.w3.org/2000/svg">
<path d="M18.9929 0.347534C19.8664 0.761242 20.2391 1.80471 19.8254 2.67819L15.3309 12.1676L24.8203 16.6621C25.6938 17.0758 26.0665 18.1193 25.6528 18.9928C25.2391 19.8663 24.1956 20.239 23.3222 19.8253L13.8327 15.3308L9.33822 24.8202C8.92451 25.6937 7.88104 26.0664 7.00756 25.6527C6.13408 25.239 5.76136 24.1955 6.17507 23.322L10.6696 13.8326L1.18014 9.3381C0.306662 8.9244 -0.0660556 7.88093 0.347652 7.00745C0.76136 6.13397 1.80483 5.76125 2.67831 6.17496L12.1677 10.6695L16.6623 1.18002C17.076 0.306544 18.1194 -0.0661736 18.9929 0.347534Z" fill="#E7E7E7"/>
</svg>
